<svg width="204" height="42" viewBox="0 0 204 42" fill="none" xmlns="http://www.w3.org/2000/svg">
  <rect y="21" width="12" height="12" fill="white" />
  <rect x="13" y="21" width="12" height="12" fill="white" />
  <rect x="26" y="21" width="12" height="12" fill="white" />
  <rect x="13" y="8" width="12" height="12" fill="white" />
  <rect y="8" width="12" height="12" fill="white" />
  <path d="M68.8789 23.6836C68.8789 26.6367 68.2168 28.9863 66.8926 30.7324C65.5801 32.4785 63.7695 33.3516 61.4609 33.3516C59.2344 33.3516 57.5 32.5488 56.2578 30.9434L56.0469 33H52.1797V6H56.4512V15.8086C57.6816 14.3555 59.3398 13.6289 61.4258 13.6289C63.7461 13.6289 65.5684 14.4902 66.8926 16.2129C68.2168 17.9355 68.8789 20.3438 68.8789 23.4375V23.6836ZM64.6074 23.3145C64.6074 21.252 64.2441 19.7051 63.5176 18.6738C62.791 17.6426 61.7363 17.127 60.3535 17.127C58.502 17.127 57.2012 17.9355 56.4512 19.5527V27.3926C57.2129 29.0449 58.5254 29.8711 60.3887 29.8711C61.7246 29.8711 62.7559 29.373 63.4824 28.377C64.209 27.3809 64.584 25.875 64.6074 23.8594V23.3145ZM77.0176 33H72.7461V13.9805H77.0176V33ZM72.4824 9.04102C72.4824 8.38477 72.6875 7.83984 73.0977 7.40625C73.5195 6.97266 74.1172 6.75586 74.8906 6.75586C75.6641 6.75586 76.2617 6.97266 76.6836 7.40625C77.1055 7.83984 77.3164 8.38477 77.3164 9.04102C77.3164 9.68555 77.1055 10.2246 76.6836 10.6582C76.2617 11.0801 75.6641 11.291 74.8906 11.291C74.1172 11.291 73.5195 11.0801 73.0977 10.6582C72.6875 10.2246 72.4824 9.68555 72.4824 9.04102ZM87.0371 9.35742V13.9805H90.3945V17.1445H87.0371V27.7617C87.0371 28.4883 87.1777 29.0156 87.459 29.3438C87.752 29.6602 88.2676 29.8184 89.0059 29.8184C89.498 29.8184 89.9961 29.7598 90.5 29.6426V32.9473C89.5273 33.2168 88.5898 33.3516 87.6875 33.3516C84.4062 33.3516 82.7656 31.541 82.7656 27.9199V17.1445H79.6367V13.9805H82.7656V9.35742H87.0371Z" fill="white" />
  <path d="M119.85 27.832C119.85 27.0703 119.533 26.4902 118.9 26.0918C118.279 25.6934 117.242 25.3418 115.789 25.0371C114.336 24.7324 113.123 24.3457 112.15 23.877C110.018 22.8457 108.951 21.3516 108.951 19.3945C108.951 17.7539 109.643 16.3828 111.025 15.2812C112.408 14.1797 114.166 13.6289 116.299 13.6289C118.572 13.6289 120.406 14.1914 121.801 15.3164C123.207 16.4414 123.91 17.9004 123.91 19.6934H119.639C119.639 18.873 119.334 18.1934 118.725 17.6543C118.115 17.1035 117.307 16.8281 116.299 16.8281C115.361 16.8281 114.594 17.0449 113.996 17.4785C113.41 17.9121 113.117 18.4922 113.117 19.2188C113.117 19.875 113.393 20.3848 113.943 20.748C114.494 21.1113 115.607 21.4805 117.283 21.8555C118.959 22.2188 120.271 22.6582 121.221 23.1738C122.182 23.6777 122.891 24.2871 123.348 25.002C123.816 25.7168 124.051 26.584 124.051 27.6035C124.051 29.3145 123.342 30.7031 121.924 31.7695C120.506 32.8242 118.648 33.3516 116.352 33.3516C114.793 33.3516 113.404 33.0703 112.186 32.5078C110.967 31.9453 110.018 31.1719 109.338 30.1875C108.658 29.2031 108.318 28.1426 108.318 27.0059H112.467C112.525 28.0137 112.906 28.793 113.609 29.3438C114.312 29.8828 115.244 30.1523 116.404 30.1523C117.529 30.1523 118.385 29.9414 118.971 29.5195C119.557 29.0859 119.85 28.5234 119.85 27.832ZM144.441 23.6836C144.441 26.625 143.773 28.9746 142.438 30.7324C141.102 32.4785 139.309 33.3516 137.059 33.3516C134.973 33.3516 133.303 32.666 132.049 31.2949V40.3125H127.777V13.9805H131.715L131.891 15.9141C133.145 14.3906 134.85 13.6289 137.006 13.6289C139.326 13.6289 141.143 14.4961 142.455 16.2305C143.779 17.9531 144.441 20.3496 144.441 23.4199V23.6836ZM140.188 23.3145C140.188 21.416 139.807 19.9102 139.045 18.7969C138.295 17.6836 137.217 17.127 135.811 17.127C134.064 17.127 132.811 17.8477 132.049 19.2891V27.7266C132.822 29.2031 134.088 29.9414 135.846 29.9414C137.205 29.9414 138.266 29.3965 139.027 28.3066C139.801 27.2051 140.188 25.541 140.188 23.3145ZM159.436 33C159.248 32.6367 159.084 32.0449 158.943 31.2246C157.584 32.6426 155.92 33.3516 153.951 33.3516C152.041 33.3516 150.482 32.8066 149.275 31.7168C148.068 30.627 147.465 29.2793 147.465 27.6738C147.465 25.6465 148.215 24.0938 149.715 23.0156C151.227 21.9258 153.383 21.3809 156.184 21.3809H158.803V20.1328C158.803 19.1484 158.527 18.3633 157.977 17.7773C157.426 17.1797 156.588 16.8809 155.463 16.8809C154.49 16.8809 153.693 17.127 153.072 17.6191C152.451 18.0996 152.141 18.7148 152.141 19.4648H147.869C147.869 18.4219 148.215 17.4492 148.906 16.5469C149.598 15.6328 150.535 14.918 151.719 14.4023C152.914 13.8867 154.244 13.6289 155.709 13.6289C157.936 13.6289 159.711 14.1914 161.035 15.3164C162.359 16.4297 163.039 18 163.074 20.0273V28.6055C163.074 30.3164 163.314 31.6816 163.795 32.7012V33H159.436ZM154.742 29.9238C155.586 29.9238 156.377 29.7188 157.115 29.3086C157.865 28.8984 158.428 28.3477 158.803 27.6562V24.0703H156.5C154.918 24.0703 153.729 24.3457 152.932 24.8965C152.135 25.4473 151.736 26.2266 151.736 27.2344C151.736 28.0547 152.006 28.7109 152.545 29.2031C153.096 29.6836 153.828 29.9238 154.742 29.9238ZM175.361 29.9414C176.428 29.9414 177.312 29.6309 178.016 29.0098C178.719 28.3887 179.094 27.6211 179.141 26.707H183.166C183.119 27.8906 182.75 28.998 182.059 30.0293C181.367 31.0488 180.43 31.8574 179.246 32.4551C178.062 33.0527 176.785 33.3516 175.414 33.3516C172.754 33.3516 170.645 32.4902 169.086 30.7676C167.527 29.0449 166.748 26.666 166.748 23.6309V23.1914C166.748 20.2969 167.521 17.9824 169.068 16.248C170.615 14.502 172.725 13.6289 175.396 13.6289C177.658 13.6289 179.498 14.291 180.916 15.6152C182.346 16.9277 183.096 18.6562 183.166 20.8008H179.141C179.094 19.7109 178.719 18.8145 178.016 18.1113C177.324 17.4082 176.439 17.0566 175.361 17.0566C173.979 17.0566 172.912 17.5605 172.162 18.5684C171.412 19.5645 171.031 21.082 171.02 23.1211V23.8066C171.02 25.8691 171.389 27.4102 172.127 28.4297C172.877 29.4375 173.955 29.9414 175.361 29.9414ZM194.768 33.3516C192.061 33.3516 189.863 32.502 188.176 30.8027C186.5 29.0918 185.662 26.8184 185.662 23.9824V23.4551C185.662 21.5566 186.025 19.8633 186.752 18.375C187.49 16.875 188.521 15.709 189.846 14.877C191.17 14.0449 192.646 13.6289 194.275 13.6289C196.865 13.6289 198.863 14.4551 200.27 16.1074C201.688 17.7598 202.396 20.0977 202.396 23.1211V24.8438H189.969C190.098 26.4141 190.619 27.6562 191.533 28.5703C192.459 29.4844 193.619 29.9414 195.014 29.9414C196.971 29.9414 198.564 29.1504 199.795 27.5684L202.098 29.7656C201.336 30.9023 200.316 31.7871 199.039 32.4199C197.773 33.041 196.35 33.3516 194.768 33.3516ZM194.258 17.0566C193.086 17.0566 192.137 17.4668 191.41 18.2871C190.695 19.1074 190.238 20.25 190.039 21.7148H198.178V21.3984C198.084 19.9688 197.703 18.8906 197.035 18.1641C196.367 17.4258 195.441 17.0566 194.258 17.0566Z" fill="white" />
</svg>
